<?xml version="1.0" encoding="UTF-8"?>
<svg id="border" xmlns="http://www.w3.org/2000/svg" viewBox="0 0 350 712.89">
  <defs>
    <style>
      .cls-1 {
        stroke-miterlimit: 10;
        stroke-width: .36px;
      }

      .cls-1, .cls-2 {
        fill: none;
        stroke: #ffb803;
      }

      .cls-2 {
        stroke-linecap: round;
        stroke-linejoin: round;
        stroke-width: 1.5px;
      }

      .cls-3 {
        fill: #ffb803;
      }
    </style>
  </defs>
  <g>
    <g>
      <path class="cls-2" d="M22.72,19.89c-5.51,0-9.98,4.47-9.98,9.98h9.98s0-9.98,0-9.98Z"/>
      <g>
        <path class="cls-1" d="M14.44,28.23c.1-1,.33-1.56.77-2.46.03-.06.11-.09.17-.05l5.07,2.56c.1.06.06.22-.06.22l-5.83-.13c-.07,0-.13-.06-.12-.13h0Z"/>
        <path class="cls-1" d="M19.08,22.08c.77-.32,1.04-.53,1.88-.62.07,0,.13.05.13.12l.34,5.4c0,.12-.17.17-.23.06l-2.19-4.79c-.03-.06,0-.14.06-.17h.01Z"/>
        <path class="cls-1" d="M15.92,24.58c.54-.69,1.18-1.3,1.9-1.8.06-.04.14-.02.18.04l2.44,4.47c.06.11-.06.23-.17.16l-4.32-2.69c-.06-.04-.08-.12-.03-.18Z"/>
      </g>
      <path class="cls-3" d="M15.18,27.53s.36.27.78.26c.42-.01.65-.4.65-.4,0,0-.24-.27-.72-.24-.41.03-.71.38-.71.38Z"/>
    </g>
    <g>
      <g>
        <path class="cls-3" d="M175,20.5c-4.24,0-7.69,3.44-7.69,7.69s3.44,7.69,7.69,7.69,7.69-3.44,7.69-7.69-3.44-7.69-7.69-7.69ZM170.44,24.3l3.66,3.66h-5.08c.05-1.39.58-2.66,1.42-3.66ZM169.03,28.71h5.06l-3.52,3.52c-.86-.94-1.43-2.17-1.54-3.52ZM174.62,34.16c-1.33-.08-2.55-.6-3.51-1.42l3.51-3.51v4.93ZM174.62,27.42l-3.67-3.67c.98-.9,2.26-1.47,3.67-1.56v5.22h0ZM180.99,27.95h-5.08l3.66-3.66c.85.99,1.37,2.26,1.42,3.66ZM175.38,22.2c1.41.09,2.69.66,3.67,1.56l-3.67,3.67v-5.22h0ZM175.38,34.16v-4.93l3.51,3.51c-.96.82-2.17,1.33-3.51,1.42ZM179.43,32.22l-3.52-3.52h5.06c-.12,1.35-.68,2.57-1.54,3.52Z"/>
        <path class="cls-3" d="M172.79,32.94s.29.04.47-.32c.18-.36,0-.58,0-.58,0,0-.29-.02-.48.33-.18.36,0,.57,0,.57Z"/>
        <path class="cls-3" d="M172.5,24.62c.27.3.54.19.54.19,0,0,.13-.26-.13-.55-.27-.3-.55-.2-.55-.2,0,0-.12.27.14.56h0Z"/>
        <path class="cls-3" d="M178.5,27.11c.37-.14.38-.44.38-.44,0,0-.21-.21-.58-.07s-.37.43-.37.43c0,0,.19.22.57.07h0Z"/>
      </g>
      <circle class="cls-2" cx="175" cy="28.18" r="11.96"/>
    </g>
    <path class="cls-2" d="M162.4,27.96H33.62c-3.79,0-4.53-4.87-1.78-7.09,2.13-1.72,5.05.96,2.45,3.55-1.67,1.66-5.5,2.69-8.31-1.74-3.41-5.37-1.41-10.86,1.04-10.71s3.11,5.24.5,11.9c-2.14,5.47-4.26,6.81-4.26,6.81"/>
    <g>
      <path class="cls-2" d="M327.28,19.89c5.51,0,9.98,4.47,9.98,9.98h-9.98s0-9.98,0-9.98Z"/>
      <g>
        <path class="cls-1" d="M335.56,28.23c-.1-1-.33-1.56-.77-2.46-.03-.06-.11-.09-.17-.05l-5.07,2.56c-.1.06-.06.22.06.22l5.83-.13c.07,0,.13-.06.12-.13h0Z"/>
        <path class="cls-1" d="M330.92,22.08c-.77-.32-1.04-.53-1.88-.62-.07,0-.13.05-.13.12l-.34,5.4c0,.12.17.17.23.06l2.19-4.79c.03-.06,0-.14-.06-.17h-.01Z"/>
        <path class="cls-1" d="M334.08,24.58c-.54-.69-1.18-1.3-1.9-1.8-.06-.04-.14-.02-.18.04l-2.44,4.47c-.06.11.06.23.17.16l4.32-2.69c.06-.04.08-.12.03-.18h0Z"/>
      </g>
      <path class="cls-3" d="M334.82,27.53s-.36.27-.78.26-.65-.4-.65-.4c0,0,.24-.27.72-.24.41.03.71.38.71.38Z"/>
    </g>
    <path class="cls-2" d="M187.6,27.96h128.78c3.79,0,4.53-4.87,1.78-7.09-2.13-1.72-5.05.96-2.45,3.55,1.67,1.66,5.5,2.69,8.31-1.74,3.41-5.37,1.41-10.86-1.04-10.71s-3.11,5.24-.5,11.9c2.14,5.47,4.26,6.81,4.26,6.81"/>
  </g>
  <g>
    <g>
      <path class="cls-2" d="M327.28,693c5.51,0,9.98-4.47,9.98-9.98h-9.98v9.98Z"/>
      <g>
        <path class="cls-1" d="M335.56,684.66c-.1,1-.33,1.56-.77,2.46-.03.06-.11.09-.17.05l-5.07-2.56c-.1-.06-.06-.22.06-.22l5.83.13c.07,0,.13.06.12.13h0Z"/>
        <path class="cls-1" d="M330.92,690.81c-.77.32-1.04.53-1.88.62-.07,0-.13-.05-.13-.12l-.34-5.4c0-.12.17-.17.23-.06l2.19,4.79c.03.06,0,.14-.06.17h-.01Z"/>
        <path class="cls-1" d="M334.08,688.31c-.54.69-1.18,1.3-1.9,1.8-.06.04-.14.02-.18-.04l-2.44-4.47c-.06-.11.06-.23.17-.16l4.32,2.69c.06.04.08.12.03.18h0Z"/>
      </g>
      <path class="cls-3" d="M334.82,685.36s-.36-.27-.78-.26-.65.4-.65.4c0,0,.24.27.72.24.41-.03.71-.38.71-.38Z"/>
    </g>
    <g>
      <g>
        <path class="cls-3" d="M175,692.4c4.24,0,7.69-3.44,7.69-7.69s-3.44-7.69-7.69-7.69-7.69,3.44-7.69,7.69,3.44,7.69,7.69,7.69ZM179.56,688.59l-3.66-3.66h5.08c-.05,1.39-.58,2.66-1.42,3.66ZM180.97,684.18h-5.06l3.52-3.52c.86.94,1.43,2.17,1.54,3.52ZM175.38,678.73c1.33.08,2.55.6,3.51,1.42l-3.51,3.51v-4.93ZM175.38,685.47l3.67,3.67c-.98.9-2.26,1.47-3.67,1.56v-5.22h0ZM169.01,684.94h5.08l-3.66,3.66c-.85-.99-1.37-2.26-1.42-3.66ZM174.62,690.69c-1.41-.09-2.69-.66-3.67-1.56l3.67-3.67v5.22h0ZM174.62,678.73v4.93l-3.51-3.51c.96-.82,2.17-1.33,3.51-1.42ZM170.57,680.67l3.52,3.52h-5.06c.12-1.35.68-2.57,1.54-3.52Z"/>
        <path class="cls-3" d="M177.21,679.95s-.29-.04-.47.32c-.18.36,0,.58,0,.58,0,0,.29.02.48-.33.18-.36,0-.57,0-.57Z"/>
        <path class="cls-3" d="M177.5,688.27c-.27-.3-.54-.19-.54-.19,0,0-.13.26.13.55.27.3.55.2.55.2,0,0,.12-.27-.14-.56h0Z"/>
        <path class="cls-3" d="M171.5,685.78c-.37.14-.38.44-.38.44,0,0,.21.21.58.07s.37-.43.37-.43c0,0-.19-.22-.57-.07h0Z"/>
      </g>
      <circle class="cls-2" cx="175" cy="684.71" r="11.96"/>
    </g>
    <path class="cls-2" d="M187.6,684.93h128.78c3.79,0,4.53,4.87,1.78,7.09-2.13,1.72-5.05-.96-2.45-3.55,1.67-1.66,5.5-2.69,8.31,1.74,3.41,5.37,1.41,10.86-1.04,10.71s-3.11-5.24-.5-11.9c2.14-5.47,4.26-6.81,4.26-6.81"/>
    <path class="cls-2" d="M326.74,682.22s1.32-2.33,6.61-4.05c6.8-2.21,11.75-1.95,11.9.5s-5.34,4.45-10.71,1.04c-4.43-2.82-3.4-6.64-1.74-8.31,2.58-2.6,5.27.32,3.55,2.45-2.23,2.75-7.09,2-7.09-1.78V40.82c0-3.79,4.87-4.53,7.09-1.78,1.72,2.13-.96,5.05-3.55,2.45-1.66-1.67-2.69-5.5,1.74-8.31,5.37-3.41,10.86-1.41,10.71,1.04s-5.1,2.71-11.9.5c-5.29-1.72-6.61-4.05-6.61-4.05"/>
    <g>
      <path class="cls-2" d="M22.72,693c-5.51,0-9.98-4.47-9.98-9.98h9.98v9.98Z"/>
      <g>
        <path class="cls-1" d="M14.44,684.66c.1,1,.33,1.56.77,2.46.03.06.11.09.17.05l5.07-2.56c.1-.06.06-.22-.06-.22l-5.83.13c-.07,0-.13.06-.12.13h0Z"/>
        <path class="cls-1" d="M19.08,690.81c.77.32,1.04.53,1.88.62.07,0,.13-.05.13-.12l.34-5.4c0-.12-.17-.17-.23-.06l-2.19,4.79c-.03.06,0,.14.06.17h.01Z"/>
        <path class="cls-1" d="M15.92,688.31c.54.69,1.18,1.3,1.9,1.8.06.04.14.02.18-.04l2.44-4.47c.06-.11-.06-.23-.17-.16l-4.32,2.69c-.06.04-.08.12-.03.18h0Z"/>
      </g>
      <path class="cls-3" d="M15.18,685.36s.36-.27.78-.26c.42.01.65.4.65.4,0,0-.24.27-.72.24-.41-.03-.71-.38-.71-.38Z"/>
    </g>
    <path class="cls-2" d="M162.4,684.93H33.62c-3.79,0-4.53,4.87-1.78,7.09,2.13,1.72,5.05-.96,2.45-3.55-1.67-1.66-5.5-2.69-8.31,1.74-3.41,5.37-1.41,10.86,1.04,10.71s3.11-5.24.5-11.9c-2.14-5.47-4.26-6.81-4.26-6.81"/>
    <path class="cls-2" d="M23.26,682.22s-1.32-2.33-6.61-4.05c-6.8-2.21-11.75-1.95-11.9.5s5.34,4.45,10.71,1.04c4.43-2.82,3.4-6.64,1.74-8.31-2.58-2.6-5.27.32-3.55,2.45,2.23,2.75,7.09,2,7.09-1.78V40.82c0-3.79-4.87-4.53-7.09-1.78-1.72,2.13.96,5.05,3.55,2.45,1.66-1.67,2.69-5.5-1.74-8.31-5.37-3.41-10.86-1.41-10.71,1.04s5.1,2.71,11.9.5c5.29-1.72,6.61-4.05,6.61-4.05"/>
  </g>
</svg>