<?xml version="1.0" encoding="UTF-8"?>
<svg id="Circle_Burst" data-name="Circle Burst" xmlns="http://www.w3.org/2000/svg" viewBox="0 0 1024 1024">
  <defs>
    <style>
      .cls-1 {
        fill: #000;
        stroke-width: 12.84px;
      }

      .cls-1, .cls-2 {
        stroke: #ffb803;
        stroke-linecap: round;
        stroke-linejoin: round;
      }

      .cls-3 {
        fill: #ffb803;
        stroke-width: 0px;
      }

      .cls-2 {
        fill: none;
        stroke-width: 12.94px;
      }
    </style>
  </defs>
  <path class="cls-1" d="M506.33,936.08c117.56,0,139.22-5.93,131.85-16.66-7.37-10.73-30.17-13.78-71.07-18.77-27.16-3.31-44.25-13.41-48.94-28.83-2.45-8.04,0-264.82,0-268.85s3.42-9.2,14.86-29.61c11.78-21,150.72-152.69,153.64-164.57,3.57-14.51-7.22-59.51-7.22-59.51,0,0-28.59,12.65-171.22,12.65s-173.12-12.65-173.12-12.65c0,0-10.79,45.01-7.22,59.51,2.92,11.88,141.87,143.57,153.64,164.57,11.45,20.41,14.86,25.59,14.86,29.61s2.45,260.81,0,268.85c-4.69,15.42-21.79,25.51-48.94,28.83-40.9,4.99-63.69,8.05-71.07,18.77-7.37,10.73,12.39,16.66,129.94,16.66Z"/>
  <path class="cls-1" d="M677.74,349.28s0-5.2-172.17-5.2-170.17,5.2-170.17,5.2c9.25,6.73,45.44,12.65,172.84,12.65s169.51-12.65,169.51-12.65Z"/>
  <g>
    <path class="cls-3" d="M507.28,392.57c-33.77,0-61.15,27.38-61.15,61.15s27.38,61.15,61.15,61.15,61.15-27.38,61.15-61.15-27.38-61.15-61.15-61.15ZM470.97,422.82l29.09,29.09h-40.43c.41-11.08,4.61-21.2,11.33-29.09ZM459.78,457.89h40.28l-27.99,27.99c-6.87-7.52-11.36-17.25-12.29-27.99ZM504.29,501.31c-10.62-.66-20.3-4.79-27.91-11.28l27.91-27.91v39.19ZM504.29,447.68l-29.17-29.17c7.79-7.12,17.96-11.68,29.17-12.38v41.55ZM554.93,451.91h-40.43l29.09-29.09c6.73,7.9,10.92,18.01,11.33,29.09ZM510.27,406.13c11.21.69,21.38,5.26,29.17,12.38l-29.17,29.17v-41.55ZM510.27,501.31v-39.19l27.91,27.91c-7.61,6.49-17.29,10.62-27.91,11.28ZM542.5,485.89l-27.99-27.99h40.28c-.93,10.75-5.42,20.47-12.29,27.99Z"/>
    <path class="cls-3" d="M489.7,491.57s2.29.28,3.75-2.55c1.47-2.83-.03-4.64-.03-4.64,0,0-2.34-.18-3.81,2.65-1.47,2.83.09,4.54.09,4.54Z"/>
    <path class="cls-3" d="M487.4,425.4c2.13,2.37,4.28,1.51,4.28,1.51,0,0,1.07-2.04-1.07-4.41-2.13-2.37-4.35-1.6-4.35-1.6,0,0-.99,2.13,1.14,4.49Z"/>
    <path class="cls-3" d="M535.12,445.17c2.97-1.15,3.04-3.5,3.04-3.5,0,0-1.63-1.69-4.61-.53-2.97,1.15-2.94,3.46-2.94,3.46,0,0,1.53,1.73,4.5.57Z"/>
  </g>
  <path class="cls-2" d="M481.34,572.87s6.51,10.66,25.94,10.66,25.94-10.66,25.94-10.66"/>
</svg>