<?xml version="1.0" encoding="UTF-8"?>
<svg id="Layer_2" data-name="Layer 2" xmlns="http://www.w3.org/2000/svg" viewBox="0 0 1024 1024">
  <defs>
    <style>
      .cls-1 {
        fill: #9ecf52;
      }
    </style>
  </defs>
  <path class="cls-1" d="M919.46,339.86c-22.27-52.66-54.16-99.95-94.76-140.56s-87.89-72.49-140.56-94.76c-54.54-23.07-112.46-34.76-172.14-34.76s-117.6,11.7-172.14,34.76c-52.66,22.27-99.95,54.16-140.56,94.76-40.6,40.6-72.49,87.89-94.76,140.56-23.07,54.54-34.76,112.46-34.76,172.14s11.7,117.6,34.76,172.14c22.28,52.66,54.16,99.95,94.76,140.56,40.6,40.6,87.89,72.49,140.56,94.76,54.54,23.07,112.46,34.76,172.14,34.76s117.6-11.7,172.14-34.76c52.66-22.27,99.95-54.16,140.56-94.76s72.49-87.89,94.76-140.56c23.07-54.54,34.76-112.46,34.76-172.14s-11.7-117.6-34.76-172.14ZM512,894.23c-102.1,0-198.08-39.76-270.28-111.95s-111.95-168.18-111.95-270.28,39.76-198.08,111.95-270.28,168.18-111.95,270.28-111.95,198.08,39.76,270.28,111.95,111.95,168.18,111.95,270.28-39.76,198.08-111.95,270.28-168.18,111.95-270.28,111.95Z"/>
  <path class="cls-1" d="M829.99,450.29c31.17-34.25-72.31-209.34-110.14-192.08,0,0-152.66,177.56-169.21,232.6-14.45,48.1,260-19.26,279.35-40.52ZM667.86,437.32c16.32-6.32,25.3,2.93,25.3,2.93,0,0-.4,12.89-16.72,19.22-16.32,6.32-24.72-3.16-24.72-3.16,0,0-.19-12.67,16.13-18.99Z"/>
  <path class="cls-1" d="M836.21,559.34s-230.1-43.43-286.04-30.24c-48.88,11.53,146.67,215.54,174.76,221.66,45.25,9.87,145.14-167.3,111.28-191.43Z"/>
  <path class="cls-1" d="M412.19,810.02c14.08,44.12,217.45,42.05,221.42.66,0,0-77.44-220.99-116.83-262.84-34.43-36.57-113.32,234.79-104.59,262.18ZM518.54,724.48c.71-17.49,12.78-22.03,12.78-22.03,0,0,11.67,5.5,10.96,22.99-.71,17.49-12.75,21.41-12.75,21.41,0,0-11.69-4.88-10.98-22.37Z"/>
  <path class="cls-1" d="M204.5,568.8c-31.17,34.25,72.31,209.34,110.14,192.08,0,0,152.66-177.56,169.21-232.6,14.45-48.1-260,19.26-279.35,40.52Z"/>
  <path class="cls-1" d="M484.32,489.99c48.88-11.53-146.67-215.54-174.76-221.66-45.25-9.87-145.14,167.3-111.28,191.43,0,0,230.1,43.43,286.04,30.24ZM310.84,422.53c-16.42-6.06-16.44-18.73-16.44-18.73,0,0,8.24-9.62,24.66-3.56,16.42,6.06,17.02,18.94,17.02,18.94,0,0-8.83,9.4-25.25,3.34Z"/>
  <path class="cls-1" d="M622.3,209.07c-14.08-44.12-217.45-42.05-221.42-.66,0,0,77.44,220.99,116.84,262.84,34.42,36.57,113.32-234.79,104.58-262.18ZM509.49,279.55s-.19-12.67,16.13-18.99c16.32-6.32,25.3,2.93,25.3,2.93,0,0-.4,12.89-16.72,19.22-16.32,6.32-24.72-3.16-24.72-3.16Z"/>
</svg>