<?xml version="1.0" encoding="utf-8"?>
<!-- Generator: Adobe Illustrator 28.3.0, SVG Export Plug-In . SVG Version: 6.00 Build 0)  -->
<svg version="1.1" id="Layer_1" xmlns="http://www.w3.org/2000/svg" xmlns:xlink="http://www.w3.org/1999/xlink" x="0px" y="0px"
	 viewBox="0 0 350 163.1" style="enable-background:new 0 0 350 163.1;" xml:space="preserve">
<style type="text/css">
	.st0{fill:#FFFFFF;stroke:#231F20;stroke-width:0.8719;stroke-miterlimit:10;}
	.st1{fill:#231F20;}
	.st2{fill:none;stroke:#231F20;stroke-width:0.5541;stroke-miterlimit:10;}
	.st3{fill:#FFFFFF;stroke:#231F20;stroke-width:2;stroke-miterlimit:10;}
	.st4{fill:#FFFFFF;}
	.st5{fill:none;stroke:#231F20;stroke-width:2;stroke-linecap:round;stroke-linejoin:round;stroke-miterlimit:10;}
	.st6{fill:#FFFFFF;stroke:#231F20;stroke-width:1.467;stroke-miterlimit:10;}
	.st7{fill:#FFFFFF;stroke:#231F20;stroke-width:1.3625;stroke-linecap:round;stroke-linejoin:round;stroke-miterlimit:10;}
	.st8{fill:#FFFFFF;stroke:#231F20;stroke-width:2;stroke-linecap:round;stroke-linejoin:round;stroke-miterlimit:10;}
	.st9{fill:#FFFFFF;stroke:#231F20;stroke-miterlimit:10;}
	.st10{fill:none;}
	.st11{fill:#D7C97F;}
	.st12{fill:none;stroke:#FFB803;stroke-width:1.5;stroke-linecap:round;stroke-linejoin:round;stroke-miterlimit:10;}
	.st13{fill:none;stroke:#FFB803;stroke-width:0.6135;stroke-miterlimit:10;}
	.st14{fill:#FFB803;}
	.st15{fill:none;stroke:#231F20;stroke-width:1.5;stroke-linecap:round;stroke-linejoin:round;stroke-miterlimit:10;}
	.st16{fill:#FFFFFF;stroke:#231F20;stroke-width:0.4167;stroke-miterlimit:10;}
	.st17{fill:#0F0F0F;}
	.st18{fill:none;stroke:#FFB803;stroke-width:1.5;stroke-linejoin:round;stroke-miterlimit:10;}
	.st19{fill:none;stroke:#FFB803;stroke-width:0.3578;stroke-miterlimit:10;}
</style>
<g>
	<g>
		<g>
			<path class="st18" d="M22.7,22.1c-5.5,0-10,4.5-10,10h10V22.1z"/>
		</g>
		<g>
			<path class="st19" d="M14.4,30.4c0.1-1,0.3-1.6,0.8-2.5c0-0.1,0.1-0.1,0.2,0l5.1,2.6c0.1,0.1,0.1,0.2-0.1,0.2l-5.8-0.1
				C14.5,30.6,14.4,30.5,14.4,30.4z"/>
			<path class="st19" d="M19.1,24.3c0.8-0.3,1-0.5,1.9-0.6c0.1,0,0.1,0.1,0.1,0.1l0.3,5.4c0,0.1-0.2,0.2-0.2,0.1L19,24.4
				C19,24.4,19,24.3,19.1,24.3z"/>
			<path class="st19" d="M15.9,26.8c0.5-0.7,1.2-1.3,1.9-1.8c0.1,0,0.1,0,0.2,0l2.4,4.5c0.1,0.1-0.1,0.2-0.2,0.2L16,26.9
				C15.9,26.9,15.9,26.8,15.9,26.8z"/>
		</g>
		<path class="st14" d="M15.2,29.7c0,0,0.4,0.3,0.8,0.3c0.4,0,0.6-0.4,0.6-0.4s-0.2-0.3-0.7-0.2C15.5,29.4,15.2,29.7,15.2,29.7z"/>
	</g>
	<g>
		<g>
			<path class="st14" d="M175,22.7c-4.2,0-7.7,3.4-7.7,7.7c0,4.2,3.4,7.7,7.7,7.7c4.2,0,7.7-3.4,7.7-7.7
				C182.7,26.1,179.2,22.7,175,22.7z M170.4,26.5l3.7,3.7H169C169.1,28.8,169.6,27.5,170.4,26.5z M169,30.9h5.1l-3.5,3.5
				C169.7,33.5,169.1,32.2,169,30.9z M174.6,36.4c-1.3-0.1-2.6-0.6-3.5-1.4l3.5-3.5V36.4z M174.6,29.6l-3.7-3.7
				c1-0.9,2.3-1.5,3.7-1.6V29.6z M181,30.1h-5.1l3.7-3.7C180.4,27.5,180.9,28.8,181,30.1z M175.4,24.4c1.4,0.1,2.7,0.7,3.7,1.6
				l-3.7,3.7V24.4z M175.4,36.4v-4.9l3.5,3.5C177.9,35.8,176.7,36.3,175.4,36.4z M179.4,34.4l-3.5-3.5h5.1
				C180.9,32.2,180.3,33.5,179.4,34.4z"/>
			<path class="st14" d="M172.8,35.1c0,0,0.3,0,0.5-0.3c0.2-0.4,0-0.6,0-0.6s-0.3,0-0.5,0.3C172.6,34.9,172.8,35.1,172.8,35.1z"/>
			<path class="st14" d="M172.5,26.8c0.3,0.3,0.5,0.2,0.5,0.2s0.1-0.3-0.1-0.6c-0.3-0.3-0.5-0.2-0.5-0.2S172.2,26.5,172.5,26.8z"/>
			<path class="st14" d="M178.5,29.3c0.4-0.1,0.4-0.4,0.4-0.4s-0.2-0.2-0.6-0.1c-0.4,0.1-0.4,0.4-0.4,0.4S178.1,29.4,178.5,29.3z"/>
		</g>
		<circle class="st18" cx="175" cy="30.4" r="12"/>
	</g>
	<path class="st18" d="M162.4,30.2c0,0-125,0-128.8,0s-4.5-4.9-1.8-7.1c2.1-1.7,5,1,2.4,3.5c-1.7,1.7-5.5,2.7-8.3-1.7
		c-3.4-5.4-1.4-10.9,1-10.7c2.4,0.1,3.1,5.2,0.5,11.9c-2.1,5.5-4.3,6.8-4.3,6.8"/>
	<path class="st18" d="M23.3,32.9c0,0-1.3,2.3-6.6,4c-6.8,2.2-11.8,1.9-11.9-0.5c-0.1-2.4,5.3-4.5,10.7-1c4.4,2.8,3.4,6.6,1.7,8.3
		c-2.6,2.6-5.3-0.3-3.5-2.4c2.2-2.7,7.1-2,7.1,1.8v125.3"/>
	<g>
		<g>
			<path class="st18" d="M327.3,22.1c5.5,0,10,4.5,10,10h-10V22.1z"/>
		</g>
		<g>
			<path class="st19" d="M335.6,30.4c-0.1-1-0.3-1.6-0.8-2.5c0-0.1-0.1-0.1-0.2,0l-5.1,2.6c-0.1,0.1-0.1,0.2,0.1,0.2l5.8-0.1
				C335.5,30.6,335.6,30.5,335.6,30.4z"/>
			<path class="st19" d="M330.9,24.3c-0.8-0.3-1-0.5-1.9-0.6c-0.1,0-0.1,0.1-0.1,0.1l-0.3,5.4c0,0.1,0.2,0.2,0.2,0.1l2.2-4.8
				C331,24.4,331,24.3,330.9,24.3z"/>
			<path class="st19" d="M334.1,26.8c-0.5-0.7-1.2-1.3-1.9-1.8c-0.1,0-0.1,0-0.2,0l-2.4,4.5c-0.1,0.1,0.1,0.2,0.2,0.2l4.3-2.7
				C334.1,26.9,334.1,26.8,334.1,26.8z"/>
		</g>
		<path class="st14" d="M334.8,29.7c0,0-0.4,0.3-0.8,0.3c-0.4,0-0.6-0.4-0.6-0.4s0.2-0.3,0.7-0.2C334.5,29.4,334.8,29.7,334.8,29.7z
			"/>
	</g>
	<path class="st18" d="M187.6,30.2c0,0,125,0,128.8,0c3.8,0,4.5-4.9,1.8-7.1c-2.1-1.7-5,1-2.4,3.5c1.7,1.7,5.5,2.7,8.3-1.7
		c3.4-5.4,1.4-10.9-1-10.7c-2.4,0.1-3.1,5.2-0.5,11.9c2.1,5.5,4.3,6.8,4.3,6.8"/>
	<path class="st18" d="M326.7,32.9c0,0,1.3,2.3,6.6,4c6.8,2.2,11.8,1.9,11.9-0.5c0.1-2.4-5.3-4.5-10.7-1c-4.4,2.8-3.4,6.6-1.7,8.3
		c2.6,2.6,5.3-0.3,3.5-2.4c-2.2-2.7-7.1-2-7.1,1.8v125.3"/>
</g>
</svg>
