<?xml version="1.0" encoding="UTF-8"?>
<svg id="Layer_1" data-name="Layer 1" xmlns="http://www.w3.org/2000/svg" viewBox="0 0 350 163.06">
  <defs>
    <style>
      .cls-1 {
        fill: none;
        stroke: #ffb803;
        stroke-linecap: round;
        stroke-linejoin: round;
        stroke-width: 1.5px;
      }

      .cls-2 {
        fill: #ffb803;
      }
    </style>
  </defs>
  <g>
    <path class="cls-1" d="M22.72,22.08c-5.51,0-9.98,4.47-9.98,9.98h9.98v-9.98Z"/>
    <g>
      <path class="cls-2" d="M14.44,30.42c.1-1,.33-1.56.77-2.46.03-.06.11-.09.17-.05l5.07,2.56c.1.06.06.22-.06.22l-5.83-.13c-.07,0-.13-.06-.12-.13Z"/>
      <path class="cls-2" d="M19.08,24.27c.77-.32,1.04-.53,1.88-.62.07,0,.13.05.13.12l.34,5.4c0,.12-.17.17-.23.06l-2.19-4.79c-.03-.06,0-.14.06-.17Z"/>
      <path class="cls-2" d="M15.92,26.77c.54-.69,1.18-1.3,1.9-1.8.06-.04.14-.02.18.04l2.44,4.47c.06.11-.06.23-.17.16l-4.32-2.69c-.06-.04-.08-.12-.03-.18Z"/>
    </g>
  </g>
  <g>
    <circle class="cls-1" cx="175.07" cy="30.37" r="11.96"/>
    <g>
      <path class="cls-2" d="M175.52,25.72c.33-.13.34-.39.34-.39,0,0-.18-.19-.51-.06-.33.13-.33.39-.33.39,0,0,.17.19.5.06Z"/>
      <path class="cls-2" d="M171.15,28.11c-.33-.12-.5.07-.5.07,0,0,0,.26.33.38.33.12.51-.07.51-.07,0,0-.01-.26-.35-.38Z"/>
      <path class="cls-2" d="M178.4,29.31c.33-.13.34-.39.34-.39,0,0-.18-.19-.51-.06-.33.13-.33.39-.33.39,0,0,.17.19.5.06Z"/>
      <path class="cls-2" d="M175.42,35.13s.24-.08.26-.43c.01-.35-.22-.47-.22-.47,0,0-.24.09-.26.45-.01.35.22.45.22.45Z"/>
      <path class="cls-2" d="M183.33,26.88c-.45-1.07-1.1-2.03-1.92-2.85-.82-.82-1.78-1.47-2.85-1.92-1.11-.47-2.28-.7-3.49-.7s-2.38.24-3.49.7c-1.07.45-2.03,1.1-2.85,1.92-.82.82-1.47,1.78-1.92,2.85-.47,1.11-.7,2.28-.7,3.49s.24,2.38.7,3.49c.45,1.07,1.1,2.03,1.92,2.85.82.82,1.78,1.47,2.85,1.92,1.11.47,2.28.7,3.49.7s2.38-.24,3.49-.7c1.07-.45,2.03-1.1,2.85-1.92.82-.82,1.47-1.78,1.92-2.85.47-1.11.7-2.28.7-3.49s-.24-2.38-.7-3.49ZM179.28,25.23c.77-.35,2.87,3.2,2.23,3.89-.39.43-5.96,1.8-5.66.82.34-1.12,3.43-4.72,3.43-4.72ZM177.3,24.23c.18.56-1.42,6.06-2.12,5.32-.8-.85-2.37-5.33-2.37-5.33.08-.84,4.2-.88,4.49.01ZM170.96,25.43c.57.12,4.53,4.26,3.54,4.49-1.13.27-5.8-.61-5.8-.61-.69-.49,1.34-4.08,2.26-3.88ZM171.06,35.42c-.77.35-2.87-3.2-2.23-3.89.39-.43,5.96-1.8,5.66-.82-.34,1.12-3.43,4.72-3.43,4.72ZM173.04,36.41c-.18-.56,1.42-6.06,2.12-5.32.8.85,2.37,5.33,2.37,5.33-.08.84-4.2.88-4.49-.01ZM179.38,35.21c-.57-.12-4.53-4.26-3.54-4.49,1.13-.27,5.8.61,5.8.61.69.49-1.34,4.08-2.26,3.88Z"/>
    </g>
  </g>
  <path class="cls-1" d="M162.4,30.15H33.62c-3.79,0-4.53-4.87-1.78-7.09,2.13-1.72,5.05.96,2.45,3.55-1.67,1.66-5.5,2.69-8.31-1.74-3.41-5.37-1.41-10.86,1.04-10.71s3.11,5.24.5,11.9c-2.14,5.47-4.26,6.81-4.26,6.81"/>
  <path class="cls-1" d="M23.26,32.86s-1.32,2.33-6.61,4.05c-6.8,2.21-11.75,1.95-11.9-.5s5.34-4.45,10.71-1.04c4.43,2.82,3.4,6.64,1.74,8.31-2.58,2.6-5.27-.32-3.55-2.45,2.23-2.75,7.09-2,7.09,1.78v120.3"/>
  <g>
    <path class="cls-1" d="M327.28,22.08c5.51,0,9.98,4.47,9.98,9.98h-9.98v-9.98Z"/>
    <g>
      <path class="cls-2" d="M335.56,30.42c-.1-1-.33-1.56-.77-2.46-.03-.06-.11-.09-.17-.05l-5.07,2.56c-.1.06-.06.22.06.22l5.83-.13c.07,0,.13-.06.12-.13Z"/>
      <path class="cls-2" d="M330.92,24.27c-.77-.32-1.04-.53-1.88-.62-.07,0-.13.05-.13.12l-.34,5.4c0,.12.17.17.23.06l2.19-4.79c.03-.06,0-.14-.06-.17Z"/>
      <path class="cls-2" d="M334.08,26.77c-.54-.69-1.18-1.3-1.9-1.8-.06-.04-.14-.02-.18.04l-2.44,4.47c-.06.11.06.23.17.16l4.32-2.69c.06-.04.08-.12.03-.18Z"/>
    </g>
  </g>
  <path class="cls-1" d="M187.6,30.15s125,0,128.78,0c3.79,0,4.53-4.87,1.78-7.09-2.13-1.72-5.05.96-2.45,3.55,1.67,1.66,5.5,2.69,8.31-1.74,3.41-5.37,1.41-10.86-1.04-10.71s-3.11,5.24-.5,11.9c2.14,5.47,4.26,6.81,4.26,6.81"/>
  <path class="cls-1" d="M326.74,32.86s1.32,2.33,6.61,4.05c6.8,2.21,11.75,1.95,11.9-.5s-5.34-4.45-10.71-1.04c-4.43,2.82-3.4,6.64-1.74,8.31,2.58,2.6,5.27-.32,3.55-2.45-2.23-2.75-7.09-2-7.09,1.78v120.3"/>
</svg>