<?xml version="1.0" encoding="UTF-8"?>
<svg xmlns="http://www.w3.org/2000/svg" version="1.1" viewBox="0 0 1179 2556">
  <defs>
    <style>
      .cls-1 {
        fill: #ffb803;
      }
    </style>
  </defs>
  <!-- Generator: Adobe Illustrator 28.7.1, SVG Export Plug-In . SVG Version: 1.2.0 Build 142)  -->
  <g>
    <g id="Layer_5">
      <g>
        <g>
          <path class="cls-1" d="M601.2,1524.2c-1.7,0-3.2-1.4-3.3-3.1,0-1.8,1.3-3.4,3.1-3.5,127.6-7.3,228.1-113.2,228.7-241.1.2-32.7-6.1-64.5-18.6-94.5-12.1-29-29.5-55-51.7-77.4s-48.1-40.1-76.9-52.4c-29.9-12.8-61.6-19.4-94.3-19.6h-1.2c-133.3,0-242,108.1-242.7,241.5-.3,62.3,23.1,121.7,65.8,167.2,42.6,45.3,100,72.4,161.8,76.2,1.8,0,3.2,1.7,3.1,3.5s-1.7,3.2-3.5,3.1c-63.4-3.9-122.5-31.7-166.2-78.3-43.9-46.8-67.9-107.8-67.6-171.8.7-137.1,112.4-248.1,249.3-248.1s.8,0,1.2,0c33.6.2,66.2,6.9,96.9,20.1,29.6,12.7,56.2,30.8,79,53.9,22.8,23,40.7,49.8,53.1,79.5,12.9,30.8,19.3,63.5,19.2,97.1-.6,131.4-103.8,240.2-234.9,247.7h-.3Z"/>
          <path class="cls-1" d="M577.8,1510h0c-40.6-1.6-80.3-13.8-114.7-35.3-33.5-20.9-61.5-50.1-80.8-84.5-.3-.5-.1-1.2.4-1.4.5-.3,1.2,0,1.4.4,19.2,34.1,46.9,63.1,80.1,83.8,34.1,21.3,73.4,33.4,113.7,35,.6,0,1,.5,1,1.1s-.5,1-1.1,1h0Z"/>
          <path class="cls-1" d="M595.9,1510c-.6,0-1-.4-1.1-1,0-.6.4-1.1,1-1.1,40.5-1.5,80.1-13.7,114.4-35.2,33.5-21,61.3-50.3,80.4-84.7.3-.5.9-.7,1.4-.4.5.3.7.9.4,1.4-19.3,34.8-47.4,64.3-81.2,85.5-34.7,21.7-74.6,34-115.5,35.5h.2Z"/>
          <path class="cls-1" d="M796.3,1380.2h-.3c-.3-.2-.5-.6-.3-.9,16.1-32.1,24.3-66.8,24.5-102.9.2-31.4-5.9-62-17.9-90.8-11.6-27.8-28.3-52.8-49.7-74.4-21.3-21.5-46.2-38.5-73.9-50.4-28.7-12.3-59.2-18.6-90.6-18.8h-1.1c-128.1,0-232.5,103.9-233.2,232.1-.2,36.6,7.9,71.6,24,104.2.2.3,0,.7-.3.9-.3.2-.7,0-.9-.3-16.2-32.8-24.4-68-24.2-104.8.6-128.9,105.7-233.4,234.5-233.4s.8,0,1.1,0c31.6.2,62.3,6.5,91.1,18.9,27.9,12,52.9,29,74.3,50.7s38.3,46.8,49.9,74.8c12.1,29,18.2,59.7,18,91.3-.2,36.3-8.5,71.2-24.6,103.5,0,.2-.3.4-.6.4h.2Z"/>
          <path class="cls-1" d="M578.1,1496.1c-37.2-1.5-73.5-12.4-105.3-31.6-30.8-18.6-56.9-44.8-75.5-75.7h-6.3c-.8,1.2-.9,2.8-.2,4.1,19.2,32,46.2,59,78.1,78.3,32.8,19.8,70.4,31.1,108.8,32.6h.2c2,0,3.7-1.6,3.7-3.6s-1.5-3.8-3.6-3.9v-.2Z"/>
          <path class="cls-1" d="M776.6,1389.1c-18.4,30.6-44.3,56.6-74.8,75.1-32,19.5-68.8,30.5-106.3,31.9-2.1,0-3.7,1.8-3.6,3.9,0,2,1.7,3.6,3.7,3.6s0,0,0,0c38.8-1.4,76.8-12.8,110-33,32.2-19.6,59.4-47.1,78.5-79.6.5-.9.6-1.9.4-2.8-2.1-.5-5.1.5-8,.8h0Z"/>
          <path class="cls-1" d="M787.9,1368.8c1.6,1.5,2.8,3.4,4,5.2.7-.3,1.3-.9,1.6-1.6,14.2-30.2,21.5-62.5,21.7-96.1.3-60.2-22.7-117.1-64.7-160.3-41.9-43.1-98.1-67.6-158.2-68.9-.7,0-1.4.2-2,.6.6,1.4,1.2,2.8,2.2,4,.6.7,1.2,1.4,1.8,2.1,57.5,1.9,111.2,25.6,151.4,66.9,40.8,41.9,63.1,97.1,62.8,155.6-.2,32.3-7.1,63.4-20.7,92.5h.1Z"/>
          <path class="cls-1" d="M580.3,1046.7c-59.4,1.7-115,26.1-156.7,68.7-41.7,42.7-64.9,99-65.2,158.7-.2,34,7,66.7,21.2,97.3.4.9,1.2,1.6,2,1.9,1.2-2.3,2.6-4.5,4.1-6.6-13.3-29.1-19.9-60.3-19.8-92.6.3-57.7,22.7-112.2,63-153.5,39.9-40.8,93.1-64.3,149.9-66.4.8-2.4,1.9-5.4,4-6.6-.7-.6-1.6-1-2.6-.9h0Z"/>
        </g>
        <g>
          <path class="cls-1" d="M700.7,1024.1c.5-1.1,0-2.3-1.1-2.8-1.1-.4-2.3,0-2.8,1.1l-49.3,117.9,2.7,4.4,50.5-120.7h0Z"/>
          <path class="cls-1" d="M794.2,1088.3c-.8-.9-2.1-.9-3,0l-91.2,86c.9,1.1,1.7,2.3,2.4,3.6l91.8-86.5c.9-.8.9-2.1,0-3h0Z"/>
          <path class="cls-1" d="M852.1,1190.7c1.1-.4,1.7-1.6,1.3-2.7s-1.6-1.7-2.7-1.3l-143.7,50.3,2.3,3.7,142.8-50h0Z"/>
          <path class="cls-1" d="M864.9,1300.9l-125-10.3,2.8,4.5,121.9,10h.2c1.1,0,2-.8,2.1-1.9,0-1.2-.8-2.2-1.9-2.3h0Z"/>
          <path class="cls-1" d="M829.5,1414.7c.3.2.7.3,1,.3s.6,0,.8-.2c.6-.3,1-.8,1.2-1.4.3-1.1-3.2-3.6-10.3-7.5l-32.7-17.9h-8.8c28.2,15.4,48.6,26.6,48.7,26.7h0Z"/>
          <path class="cls-1" d="M752.8,1500.6c.4.5,1,.8,1.7.8s.9,0,1.3-.4c.9-.7,1.1-2,.4-3l-83.8-110h-5.3l85.7,112.5h0Z"/>
          <path class="cls-1" d="M649,1533.9l-34.5-145.9h-4.4c12.4,52.3,27.4,116.1,34.2,144.7,1.6.2,3.2.6,4.6,1.2h.1Z"/>
          <path class="cls-1" d="M537.9,1530.7c.9,0,1.7-.2,2.6-.3l26.9-142.3h-4.3c-9.8,51.6-21.5,114-27.1,143.4.6-.2,1.3-.5,1.9-.7h0Z"/>
          <path class="cls-1" d="M427.5,1501.9c-.7,1-.4,2.3.5,2.9.4.3.8.4,1.2.4.7,0,1.3-.3,1.7-.9l80.5-116.3h-5.2l-78.9,113.9h.2Z"/>
          <path class="cls-1" d="M350.1,1416.7c-1,.6-1.3,1.9-.7,2.9.4.7,1.1,1,1.8,1s.8,0,1.1-.3l53.2-32.3h-8.2l-47.2,28.7h0Z"/>
          <path class="cls-1" d="M314.1,1307.4c-1.2,0-2,1.2-1.8,2.4.1,1.1,1,1.8,2.1,1.8s.2,0,.3,0l115-14.7,2.8-4.6-118.4,15.2h0Z"/>
          <path class="cls-1" d="M325.7,1192.9c-1.1-.3-2.3.3-2.6,1.4-.3,1.1.3,2.3,1.4,2.6l140.7,42.2,2.3-3.7-141.8-42.5Z"/>
          <path class="cls-1" d="M471.3,1174.6l2.5-3.2c-45.8-39.4-90.8-78.1-91.1-78.3-.5-.5-1.2-.6-1.9-.4-.7.2-1.2.7-1.5,1.3-.3.9,2.5,4,8.6,9.2l83.2,71.6h0c0,0,.2-.2.2-.2Z"/>
          <path class="cls-1" d="M475.6,1025c-.5-1.1-1.8-1.5-2.8-1-1.1.5-1.5,1.8-1,2.8l53.9,114,2.6-4.3-52.7-111.5h0Z"/>
          <path class="cls-1" d="M589.1,1045.2l-1-44.6c0-1.2-1-2.1-2.1-2.1h0c-1.2,0-2.1,1-2.1,2.2l1,43.8,1.9-3.1,2.3,3.8h0Z"/>
          <path class="cls-1" d="M477.2,1114.7c-.3-.5-1-.6-1.5-.2-.3.2-.4.5-.4.9s0,.4.2.6l35.3,49,1.2-2-34.8-48.3Z"/>
          <path class="cls-1" d="M553,1083.2c0-.6-.7-1-1.3-.8-.5,0-.8.5-.8,1s0,0,0,.2l2.5,11.9,1.6-2.6-2-9.7Z"/>
          <path class="cls-1" d="M635.1,1085.3v-.2c0-.5-.3-.9-.8-1-.6,0-1.1.2-1.3.8l-5.1,23.5,1.6,2.6,5.6-25.7h0Z"/>
          <path class="cls-1" d="M709.2,1120.6c0-.2.2-.4.2-.6,0-.3,0-.6-.4-.9-.5-.3-1.1-.2-1.5.2l-39.6,54,1.2,1.9,40.2-54.7h-.1Z"/>
          <path class="cls-1" d="M762.6,1183c.3-.2.5-.6.5-.9s0-.4,0-.5c-.3-.5-.9-.7-1.4-.4l-65.8,37.6,1.1,1.8,65.7-37.5h0Z"/>
          <path class="cls-1" d="M786,1261.7c.5,0,1-.5,1-1.1h0c0-.7-.6-1.1-1.2-1l-61.1,6.1,1.2,2,60.1-6Z"/>
          <path class="cls-1" d="M775.3,1343.1h.3c.4,0,.9-.3,1-.7v-.3c0-.4-.3-.9-.7-1l-6.3-2.1,1.7,2.8,4,1.3h0Z"/>
          <path class="cls-1" d="M732.5,1413.1c.2.2.5.3.7.3s.6,0,.8-.3c.2-.2.3-.5.3-.7s0-.6-.3-.8l-25.9-23.6h-3.1l27.6,25.1h0Z"/>
          <path class="cls-1" d="M664.9,1459.7c.2.4.6.6,1,.6h.4c.4-.2.6-.6.6-1v-.4l-31.1-70.9h-2.3l31.5,71.7h-.1Z"/>
          <path class="cls-1" d="M504.3,1455.7v.4c0,.4.2.8.6,1h.4c.4,0,.8-.2,1-.6l30.9-68.5h-2.3l-30.5,67.6h-.1Z"/>
          <path class="cls-1" d="M439.1,1405.7c-.2.2-.4.5-.4.8s0,.5.3.7c.2.2.5.4.8.4s.5,0,.7-.3l21.6-19.3h-3.2l-19.8,17.7h0Z"/>
          <path class="cls-1" d="M399.8,1333.6c-.6.2-.9.8-.7,1.3.1.4.6.7,1,.7s.2,0,.3,0l6.7-2.1,1.7-2.8-9,2.9Z"/>
          <path class="cls-1" d="M393.4,1251.7c-.6,0-1.1.4-1.2.9s.4,1.1.9,1.2l59,6.5,1.2-2-60-6.6h.1Z"/>
          <path class="cls-1" d="M467.3,1203.4c0-.6,0-1.2.1-1.8l-46.8-27.3c-.5-.3-1.2,0-1.4.4,0,.2-.1.4-.1.5,0,.4.2.7.5.9l47.8,27.9v-.6h-.1Z"/>
        </g>
      </g>
      <g>
        <g>
          <path class="cls-1" d="M586.1,1196.3c-22.4,0-40.6,18.2-40.6,40.6s18.2,40.6,40.6,40.6,40.6-18.2,40.6-40.6-18.2-40.6-40.6-40.6ZM562,1216.4l19.3,19.3h-26.8c.3-7.4,3.1-14.1,7.5-19.3ZM554.5,1239.7h26.7l-18.6,18.6c-4.6-5-7.5-11.4-8.2-18.6h0ZM584.1,1268.5c-7.1-.4-13.5-3.2-18.5-7.5l18.5-18.5v26ZM584.1,1232.9l-19.4-19.4c5.2-4.7,11.9-7.8,19.4-8.2v27.6ZM617.7,1235.7h-26.8l19.3-19.3c4.5,5.2,7.2,12,7.5,19.3ZM588,1205.3c7.4.5,14.2,3.5,19.4,8.2l-19.4,19.4v-27.6ZM588,1268.5v-26l18.5,18.5c-5.1,4.3-11.5,7-18.5,7.5ZM609.4,1258.3l-18.6-18.6h26.7c-.6,7.1-3.6,13.6-8.2,18.6h0Z"/>
          <path class="cls-1" d="M574.4,1262.1s1.5.2,2.5-1.7c1-1.9,0-3.1,0-3.1,0,0-1.6,0-2.5,1.8-1,1.9,0,3,0,3h0Z"/>
          <path class="cls-1" d="M572.9,1218.1c1.4,1.6,2.8,1,2.8,1,0,0,.7-1.4-.7-2.9-1.4-1.6-2.9-1.1-2.9-1.1,0,0-.7,1.4.8,3h0Z"/>
          <path class="cls-1" d="M604.5,1231.3c2-.8,2-2.3,2-2.3,0,0-1.1-1.1-3.1-.4-2,.8-2,2.3-2,2.3,0,0,1,1.1,3,.4h0Z"/>
        </g>
        <path class="cls-1" d="M597.7,1334.6c0-1.2,2.1-4.8,5.8-11.5,1-1.8,2.2-3.9,3.5-6.2,3.7-6.5,29.6-32.8,52.6-56,36.6-37,48.1-49.2,49.1-53.4,2.5-10.2-4-37.9-4.8-41-.3-1.1-2.3-2.3-4-2.9-1-.3-1.4-.4-1.9-.5-2.5-.5-6.8-.9-12.9-1.2-18.6-1.1-53.1-1.7-99.6-1.7s-80.9.6-99.6,1.7c-6,.4-10.3.9-12.9,1.2s-3.8,3.9-4.3,6.2c-1.8,8.1-6.2,29.5-4.1,38.2,1,4.2,12.6,16.4,49.1,53.4,22.9,23.2,48.9,49.5,52.6,56,1.3,2.4,2.5,4.4,3.5,6.2,3.7,6.6,5.8,10.3,5.8,11.5v5.9c1.2,145.6.5,167.8,0,170.5-2.7,8.5-13,14.3-29.1,16.2-29.4,3.6-43.8,5.7-49.5,14-2.3,3.4-1.5,6.1-.8,7.4,2.8,5.4,11.2,9.5,89.6,9.5s53.2-.6,67.2-2c17.2-1.6,21.9-4.2,23.7-7.6.7-1.3,1.5-4-.8-7.3-5.7-8.3-20.1-10.4-49.5-14-16.1-2-26.4-7.7-29.1-16.2-.4-2.6-1.1-24.8,0-170.5v-5.9h.4ZM600.5,1313.1h0ZM670.3,1168.6c-18,1.8-44.8,3.2-82.9,3.2s-66-1.5-84.2-3.3c16.6-.5,42.4-1,82.5-1s68.3.5,84.7,1.1h0ZM519.3,1255.6c-20.1-20.3-45.1-45.6-47.2-50.1-1.4-6.3,1.8-23.8,3.9-33.5,9.7,2.4,38.7,7.4,111.4,7.4s100.5-4.9,110.2-7.3c2.5,11.3,5.2,27.7,3.9,33.4-2.2,4.5-27.1,29.8-47.2,50.1-29.7,30.1-49.6,50.4-53.7,57.5,0,.2-3.6,5.2-13.8,5.2s-13.6-5-13.8-5.2c-4.1-7-23.9-27.4-53.7-57.5ZM572.9,1313h0ZM625.7,1534.6c23.1,2.8,39.8,4.9,44.1,10.6-1.4.8-5.7,2.4-19,3.5-13.8,1.2-35,1.8-64.7,1.8s-50.3-.6-63.9-1.7c-13.1-1.1-17.3-2.7-18.6-3.5,4.2-5.8,21-7.9,44.2-10.7,24.7-3,32.9-13.4,35.4-21.6.4-1.4,1.6-5.3.2-172.6v-5.8c0-2.4-.9-4.6-3.6-9.5,2,.4,4.4.7,7.1.7s5-.3,7.1-.7c-2.7,4.9-3.6,7.1-3.6,9.5v5.8c-1.4,167.3-.2,171.1.2,172.6,2.5,8.2,10.7,18.6,35.4,21.6h-.3Z"/>
      </g>
      <g>
        <path class="cls-1" d="M799.8,1389.4h-204.3c-.7,0-1.3-.6-1.3-1.3s.6-1.3,1.3-1.3h201.9l-101.7-165.4c-.4-.6-.2-1.5.4-1.9.6-.4,1.5-.2,1.9.4l102.9,167.5c.3.4.3.9,0,1.4-.2.4-.7.7-1.2.7h0Z"/>
        <path class="cls-1" d="M511.9,1164.4c-.2,0-.5,0-.7-.2-.6-.4-.8-1.2-.4-1.9l74.8-121.7c.2-.4.7-.6,1.1-.6s.9.2,1.1.6l74.5,121.1c.4.6.2,1.5-.4,1.9-.6.4-1.5.2-1.9-.4l-73.3-119.3-73.6,119.8c-.3.4-.7.6-1.1.6h0Z"/>
        <path class="cls-1" d="M577.1,1389.4h-203.5c-.5,0-.9-.3-1.2-.7-.2-.4-.2-.9,0-1.4l103.5-168.3c.4-.6,1.2-.8,1.9-.4.6.4.8,1.2.4,1.9l-102.2,166.3h201.1c.7,0,1.3.6,1.3,1.3s-.6,1.3-1.3,1.3h0Z"/>
        <path class="cls-1" d="M770.4,1375h-174.4c-1.9,0-3.4-1.5-3.4-3.4s1.5-3.4,3.4-3.4h168.3l-82.4-134.1c-1-1.6-.5-3.7,1.1-4.6,1.6-1,3.7-.5,4.6,1.1l85.6,139.3c.6,1,.7,2.3,0,3.4s-1.7,1.7-2.9,1.7h.1Z"/>
        <path class="cls-1" d="M531.5,1165.9c-.6,0-1.2-.2-1.8-.5-1.6-1-2.1-3.1-1.1-4.6l55.2-89.8c.6-1,1.7-1.6,2.9-1.6s2.3.6,2.9,1.6l54.8,89.1c1,1.6.5,3.7-1.1,4.6-1.6,1-3.7.5-4.6-1.1l-51.9-84.5-52.3,85.1c-.6,1-1.7,1.6-2.9,1.6h-.1Z"/>
        <path class="cls-1" d="M577,1375h-174c-1.2,0-2.3-.7-2.9-1.7s-.6-2.4,0-3.4l85.7-139.4c1-1.6,3-2.1,4.6-1.1s2.1,3.1,1.1,4.6l-82.5,134.2h168c1.9,0,3.4,1.5,3.4,3.4s-1.5,3.4-3.4,3.4Z"/>
        <path class="cls-1" d="M750.8,1362h-154.7c-.7,0-1.3-.6-1.3-1.3s.6-1.3,1.3-1.3h152.3l-72.5-117.9c-.4-.6-.2-1.5.4-1.9.6-.4,1.5-.2,1.9.4l73.7,119.9c.3.4.3.9,0,1.4-.2.4-.7.7-1.2.7h0Z"/>
        <path class="cls-1" d="M629.3,1164.2c-.5,0-.9-.2-1.1-.6l-41.4-67.4-40.9,66.5c-.4.6-1.2.8-1.9.4-.6-.4-.8-1.2-.4-1.9l42-68.4c.2-.4.7-.6,1.1-.6s.9.2,1.1.6l42.6,69.2c.4.6.2,1.5-.4,1.9-.2,0-.5.2-.7.2h0Z"/>
        <path class="cls-1" d="M577.4,1362h-154.8c-.5,0-.9-.3-1.2-.7-.2-.4-.2-.9,0-1.4l74.3-120.9c.4-.6,1.2-.8,1.9-.4.6.4.8,1.2.4,1.9l-73,118.8h152.4c.7,0,1.3.6,1.3,1.3s-.6,1.3-1.3,1.3h0Z"/>
      </g>
    </g>
  </g>
</svg>