<?xml version="1.0" encoding="UTF-8"?>
<svg id="Circle_Burst" data-name="Circle Burst" xmlns="http://www.w3.org/2000/svg" viewBox="0 0 1024 1024">
  <defs>
    <style>
      .cls-1 {
        stroke-width: 5.86px;
      }

      .cls-1, .cls-2, .cls-3 {
        fill: none;
        stroke: #ffb803;
        stroke-linecap: round;
        stroke-linejoin: round;
      }

      .cls-2 {
        stroke-width: 1.95px;
      }

      .cls-3 {
        stroke-width: 9.76px;
      }
    </style>
  </defs>
  <path class="cls-3" d="M507.18,877.59c-204.01-.08-369.92-166.12-369.84-370.13.08-204.01,166.12-369.92,370.13-369.84s369.92,166.12,369.84,370.13c-.08,204.01-166.12,369.92-370.13,369.84Z"/>
  <path class="cls-2" d="M507.18,859.28c-193.92-.08-351.61-157.9-351.54-351.82.08-193.91,157.9-351.61,351.82-351.54,193.92.08,351.61,157.9,351.54,351.82-.08,193.91-157.9,351.61-351.82,351.54Z"/>
  <circle class="cls-3" cx="507.32" cy="507.6" r="338.14"/>
  <g>
    <path class="cls-1" d="M511.85,461.48s.15-369.99.15-369.99"/>
    <path class="cls-1" d="M530.22,467.31s150.62-337.94,150.62-337.94"/>
    <path class="cls-1" d="M544.63,480.11s275.05-247.46,275.05-247.46"/>
    <path class="cls-1" d="M552.59,497.66s351.92-114.19,351.92-114.19"/>
    <path class="cls-1" d="M552.72,516.93s367.94,38.82,367.94,38.82"/>
    <path class="cls-1" d="M545,534.59s320.34,185.12,320.34,185.12"/>
    <path class="cls-1" d="M530.77,547.58s217.35,299.41,217.35,299.41"/>
    <path class="cls-1" d="M512.48,553.66s76.78,361.93,76.78,361.93"/>
    <path class="cls-1" d="M493.3,551.78s-77.07,361.87-77.07,361.87"/>
    <path class="cls-1" d="M476.55,542.26s-217.59,299.24-217.59,299.24"/>
    <path class="cls-1" d="M465.11,526.74s-320.49,184.87-320.49,184.87"/>
    <path class="cls-1" d="M460.98,507.92s-367.97,38.53-367.97,38.53"/>
    <path class="cls-1" d="M464.86,489.04s-351.83-114.47-351.83-114.47"/>
    <path class="cls-1" d="M476.08,473.37S201.22,225.7,201.22,225.7"/>
    <path class="cls-1" d="M492.7,463.62S342.35,125.57,342.35,125.57"/>
    <path class="cls-1" d="M511.85,461.48s.15-369.99.15-369.99"/>
  </g>
  <path class="cls-2" d="M336.58,264.72c63.53,87.51,147.3,202.91,147.3,202.91,0,0-83.77-115.39-147.3-202.91"/>
  <path class="cls-2" d="M450.13,216.25c22.44,105.79,52.04,245.3,52.04,245.3,0,0-29.6-139.51-52.04-245.3"/>
  <path class="cls-2" d="M573.58,218.15c-22.53,105.78-52.24,245.28-52.24,245.28,0,0,29.71-139.5,52.24-245.28"/>
  <path class="cls-2" d="M685.56,270.16c-63.6,87.46-147.46,202.79-147.46,202.79,0,0,83.86-115.33,147.46-202.79"/>
  <path class="cls-2" d="M766.74,363.17c-93.68,54.04-217.21,125.29-217.21,125.29,0,0,123.53-71.26,217.21-125.29"/>
  <path class="cls-2" d="M803.02,481.18c-107.55,11.26-249.36,26.11-249.36,26.11,0,0,141.8-14.85,249.36-26.11"/>
  <path class="cls-2" d="M788.28,603.76c-102.84-33.46-238.49-77.59-238.49-77.59,0,0,135.65,44.13,238.49,77.59"/>
  <path class="cls-2" d="M724.81,709.66c-80.33-72.39-186.24-167.83-186.24-167.83,0,0,105.91,95.44,186.24,167.83"/>
  <path class="cls-2" d="M623.86,780.73c-43.95-98.82-101.91-229.15-101.91-229.15,0,0,57.97,130.33,101.91,229.15"/>
  <path class="cls-2" d="M502.69,804.43c.04-108.14.1-250.7.1-250.7,0,0-.06,142.56-.1,250.7,1.5.02,3,.06,4.51.06"/>
  <path class="cls-2" d="M382.33,776.95c44.03-98.78,102.09-229.05,102.09-229.05,0,0-58.06,130.27-102.09,229.05"/>
  <path class="cls-2" d="M283.63,702.79c80.39-72.33,186.38-167.69,186.38-167.69,0,0-105.99,95.36-186.38,167.69"/>
  <path class="cls-2" d="M223.51,594.95c102.87-33.38,238.55-77.4,238.55-77.4,0,0-135.68,44.03-238.55,77.4"/>
  <path class="cls-2" d="M212.58,471.97c107.55,11.35,249.35,26.31,249.35,26.31,0,0-141.8-14.96-249.35-26.31"/>
  <path class="cls-2" d="M252.54,355.16c93.63,54.11,217.11,125.46,217.11,125.46,0,0-123.47-71.35-217.11-125.46"/>
</svg>