<?xml version="1.0" encoding="UTF-8"?>
<svg id="Layer_1" data-name="Layer 1" xmlns="http://www.w3.org/2000/svg" viewBox="0 0 350 217.62">
  <defs>
    <style>
      .cls-1 {
        stroke-miterlimit: 10;
        stroke-width: .61px;
      }

      .cls-1, .cls-2 {
        fill: none;
        stroke: #ffb803;
      }

      .cls-3 {
        fill: #ffb803;
        stroke-width: 0px;
      }

      .cls-2 {
        stroke-linecap: round;
        stroke-linejoin: round;
        stroke-width: 1.5px;
      }
    </style>
  </defs>
  <circle class="cls-2" cx="32.01" cy="199.55" r="4.72"/>
  <g>
    <path class="cls-2" d="M32.64,14.15c-9.46,0-17.12,7.66-17.12,17.12h17.12V14.15Z"/>
    <g>
      <path class="cls-1" d="M18.36,29.16c.18-1.72.66-3.39,1.41-4.94.05-.11.2-.15.3-.09l7.82,4.87c.18.11.1.38-.11.38h-9.21c-.12,0-.22-.11-.21-.23Z"/>
      <path class="cls-1" d="M26.4,17.9c1.33-.56,2.74-.92,4.18-1.07.12-.01.23.09.23.21v8.58c0,.21-.29.29-.39.1l-4.12-7.53c-.06-.11-.01-.25.1-.29Z"/>
      <path class="cls-1" d="M20.98,22.19c.92-1.19,2.03-2.23,3.26-3.08.1-.07.24-.04.3.07l4.19,7.66c.1.19-.11.39-.29.27l-7.41-4.62c-.1-.07-.13-.21-.06-.31Z"/>
    </g>
    <path class="cls-3" d="M19.71,28.01s.62.47,1.33.45,1.11-.69,1.11-.69c0,0-.41-.46-1.23-.41-.71.04-1.22.65-1.22.65Z"/>
  </g>
  <g>
    <g>
      <path class="cls-3" d="M175,18.64c-6.6,0-11.96,5.35-11.96,11.96s5.35,11.96,11.96,11.96,11.96-5.35,11.96-11.96-5.35-11.96-11.96-11.96ZM167.9,24.56l5.69,5.69h-7.91c.08-2.17.9-4.14,2.22-5.69ZM165.71,31.41h7.88l-5.47,5.47c-1.34-1.47-2.22-3.37-2.4-5.47ZM174.41,39.91c-2.08-.13-3.97-.94-5.46-2.21l5.46-5.46v7.66ZM174.41,29.42l-5.7-5.7c1.52-1.39,3.51-2.28,5.7-2.42v8.12ZM184.32,30.24h-7.91l5.69-5.69c1.32,1.54,2.14,3.52,2.22,5.69ZM175.59,21.29c2.19.14,4.18,1.03,5.7,2.42l-5.7,5.7v-8.13ZM175.59,39.91v-7.66l5.46,5.46c-1.49,1.27-3.38,2.08-5.46,2.21ZM181.89,36.89l-5.47-5.47h7.88c-.18,2.1-1.06,4-2.4,5.47Z"/>
      <path class="cls-3" d="M171.56,38s.45.06.73-.5c.29-.55,0-.91,0-.91,0,0-.46-.04-.74.52-.29.55.02.89.02.89Z"/>
      <path class="cls-3" d="M171.11,25.06c.42.46.84.3.84.3,0,0,.21-.4-.21-.86-.42-.46-.85-.31-.85-.31,0,0-.19.42.22.88Z"/>
      <path class="cls-3" d="M180.44,28.93c.58-.23.6-.68.6-.68,0,0-.32-.33-.9-.1-.58.23-.57.68-.57.68,0,0,.3.34.88.11Z"/>
    </g>
    <circle class="cls-2" cx="175" cy="30.6" r="18.6"/>
  </g>
  <path class="cls-2" d="M156.4,30.62H49.92c-5.28,0-6.31-6.79-2.48-9.89,2.96-2.4,7.04,1.35,3.41,4.95-2.33,2.32-7.66,3.75-11.59-2.43-4.76-7.48-1.97-15.14,1.45-14.93s6.18,8.27.7,16.59c-2.8,4.25-8.77,6.38-8.77,6.38"/>
  <path class="cls-2" d="M31.98,194.6s0-140.77,0-146.05-6.79-6.31-9.89-2.48c-2.4,2.96,1.35,7.04,4.95,3.41,2.32-2.33,3.75-7.66-2.43-11.59-7.48-4.76-15.14-1.97-14.93,1.45s8.27,6.18,16.59.7c4.25-2.8,6.38-8.77,6.38-8.77"/>
  <g>
    <circle class="cls-2" cx="317.99" cy="199.55" r="4.72"/>
    <g>
      <path class="cls-2" d="M317.36,14.15c9.46,0,17.12,7.66,17.12,17.12h-17.12V14.15Z"/>
      <g>
        <path class="cls-1" d="M331.64,29.16c-.18-1.72-.66-3.39-1.41-4.94-.05-.11-.2-.15-.3-.09l-7.82,4.87c-.18.11-.1.38.11.38h9.21c.12,0,.22-.11.21-.23Z"/>
        <path class="cls-1" d="M323.6,17.9c-1.33-.56-2.74-.92-4.18-1.07-.12-.01-.23.09-.23.21v8.58c0,.21.29.29.39.1l4.12-7.53c.06-.11.01-.25-.1-.29Z"/>
        <path class="cls-1" d="M329.02,22.19c-.92-1.19-2.03-2.23-3.26-3.08-.1-.07-.24-.04-.3.07l-4.19,7.66c-.1.19.11.39.29.27l7.41-4.62c.1-.07.13-.21.06-.31Z"/>
      </g>
      <path class="cls-3" d="M330.29,28.01s-.62.47-1.33.45-1.11-.69-1.11-.69c0,0,.41-.46,1.23-.41.71.04,1.22.65,1.22.65Z"/>
    </g>
    <path class="cls-2" d="M193.6,30.62s101.2,0,106.48,0,6.31-6.79,2.48-9.89c-2.96-2.4-7.04,1.35-3.41,4.95,2.33,2.32,7.66,3.75,11.59-2.43,4.76-7.48,1.97-15.14-1.45-14.93s-6.18,8.27-.7,16.59c2.8,4.25,8.77,6.38,8.77,6.38"/>
    <path class="cls-2" d="M318.02,194.6s0-140.77,0-146.05c0-5.28,6.79-6.31,9.89-2.48,2.4,2.96-1.35,7.04-4.95,3.41-2.32-2.33-3.75-7.66,2.43-11.59,7.48-4.76,15.14-1.97,14.93,1.45s-8.27,6.18-16.59.7c-4.25-2.8-6.38-8.77-6.38-8.77"/>
  </g>
</svg>