<?xml version="1.0" encoding="UTF-8"?>
<svg id="Layer_1" data-name="Layer 1" xmlns="http://www.w3.org/2000/svg" viewBox="0 0 1024 1024">
  <defs>
    <style>
      .cls-1 {
        fill: #f1f2f2;
      }
    </style>
  </defs>
  <path class="cls-1" d="M782.28,241.72c-72.19-72.19-168.18-111.95-270.28-111.95s-198.08,39.76-270.28,111.95-111.95,168.18-111.95,270.28,39.76,198.08,111.95,270.28,168.18,111.95,270.28,111.95,198.08-39.76,270.28-111.95,111.95-168.18,111.95-270.28-39.76-198.08-111.95-270.28ZM829.99,450.29c-19.35,21.26-293.8,88.61-279.35,40.52,16.54-55.04,169.21-232.6,169.21-232.6,37.83-17.26,141.31,157.83,110.14,192.08ZM622.3,209.07c8.74,27.39-70.16,298.74-104.58,262.18-39.4-41.85-116.84-262.84-116.84-262.84,3.97-41.39,207.34-43.46,221.42.66ZM309.56,268.33c28.09,6.13,223.64,210.13,174.76,221.66-55.94,13.2-286.04-30.24-286.04-30.24-33.86-24.13,66.03-201.3,111.28-191.43ZM204.5,568.8c19.35-21.26,293.8-88.61,279.35-40.52-16.54,55.04-169.21,232.6-169.21,232.6-37.83,17.26-141.31-157.83-110.14-192.08ZM412.19,810.02c-8.74-27.39,70.16-298.74,104.59-262.18,39.4,41.85,116.83,262.84,116.83,262.84-3.97,41.39-207.34,43.46-221.42-.66ZM724.93,750.77c-28.09-6.13-223.64-210.13-174.76-221.66,55.94-13.2,286.04,30.24,286.04,30.24,33.86,24.13-66.03,201.3-111.28,191.43Z"/>
</svg>