<?xml version="1.0" encoding="UTF-8"?>
<svg id="Layer_1" data-name="Layer 1" xmlns="http://www.w3.org/2000/svg" viewBox="0 0 350 163.06">
  <defs>
    <style>
      .cls-1 {
        stroke-miterlimit: 10;
        stroke-width: .36px;
      }

      .cls-1, .cls-2 {
        fill: none;
        stroke: #ffb803;
      }

      .cls-2 {
        stroke-linecap: round;
        stroke-linejoin: round;
        stroke-width: 1.5px;
      }

      .cls-3 {
        fill: #ffb803;
      }
    </style>
  </defs>
  <g>
    <path class="cls-2" d="M22.72,22.08c-5.51,0-9.98,4.47-9.98,9.98h9.98v-9.98Z"/>
    <g>
      <path class="cls-1" d="M14.44,30.42c.1-1,.33-1.56.77-2.46.03-.06.11-.09.17-.05l5.07,2.56c.1.06.06.22-.06.22l-5.83-.13c-.07,0-.13-.06-.12-.13Z"/>
      <path class="cls-1" d="M19.08,24.27c.77-.32,1.04-.53,1.88-.62.07,0,.13.05.13.12l.34,5.4c0,.12-.17.17-.23.06l-2.19-4.79c-.03-.06,0-.14.06-.17Z"/>
      <path class="cls-1" d="M15.92,26.77c.54-.69,1.18-1.3,1.9-1.8.06-.04.14-.02.18.04l2.44,4.47c.06.11-.06.23-.17.16l-4.32-2.69c-.06-.04-.08-.12-.03-.18Z"/>
    </g>
    <path class="cls-3" d="M15.18,29.72s.36.27.78.26.65-.4.65-.4c0,0-.24-.27-.72-.24-.41.03-.71.38-.71.38Z"/>
  </g>
  <g>
    <circle class="cls-2" cx="175.07" cy="30.37" r="11.96"/>
    <g>
      <path class="cls-3" d="M183.33,26.88c-.45-1.07-1.1-2.03-1.92-2.85s-1.78-1.47-2.85-1.92c-1.11-.47-2.28-.7-3.49-.7s-2.38.24-3.49.7c-1.07.45-2.03,1.1-2.85,1.92-.82.82-1.47,1.78-1.92,2.85-.47,1.11-.7,2.28-.7,3.49s.24,2.38.7,3.49c.45,1.07,1.1,2.03,1.92,2.85.82.82,1.78,1.47,2.85,1.92,1.11.47,2.28.7,3.49.7s2.38-.24,3.49-.7c1.07-.45,2.03-1.1,2.85-1.92s1.47-1.78,1.92-2.85c.47-1.11.7-2.28.7-3.49s-.24-2.38-.7-3.49ZM175.07,38.12c-2.07,0-4.02-.81-5.48-2.27s-2.27-3.41-2.27-5.48.81-4.02,2.27-5.48,3.41-2.27,5.48-2.27,4.02.81,5.48,2.27c1.46,1.46,2.27,3.41,2.27,5.48s-.81,4.02-2.27,5.48c-1.46,1.46-3.41,2.27-5.48,2.27Z"/>
      <path class="cls-3" d="M181.51,29.12c.63-.69-1.47-4.24-2.23-3.89,0,0-3.1,3.6-3.43,4.72-.29.98,5.27-.39,5.66-.82ZM178.23,28.86c.33-.13.51.06.51.06,0,0,0,.26-.34.39-.33.13-.5-.06-.5-.06,0,0,0-.26.33-.39Z"/>
      <path class="cls-3" d="M181.64,31.33s-4.67-.88-5.8-.61c-.99.23,2.97,4.37,3.54,4.49.92.2,2.94-3.39,2.26-3.88Z"/>
      <path class="cls-3" d="M173.04,36.41c.29.89,4.41.85,4.49.01,0,0-1.57-4.48-2.37-5.33-.7-.74-2.3,4.76-2.12,5.32ZM175.2,34.68c.01-.35.26-.45.26-.45,0,0,.24.11.22.47-.01.35-.26.43-.26.43,0,0-.24-.1-.22-.45Z"/>
      <path class="cls-3" d="M168.83,31.52c-.63.69,1.47,4.24,2.23,3.89,0,0,3.1-3.6,3.43-4.72.29-.98-5.27.39-5.66.82Z"/>
      <path class="cls-3" d="M174.5,29.92c.99-.23-2.97-4.37-3.54-4.49-.92-.2-2.94,3.39-2.26,3.88,0,0,4.67.88,5.8.61ZM170.99,28.56c-.33-.12-.33-.38-.33-.38,0,0,.17-.19.5-.07.33.12.35.38.35.38,0,0-.18.19-.51.07Z"/>
      <path class="cls-3" d="M177.3,24.23c-.29-.89-4.41-.85-4.49-.01,0,0,1.57,4.48,2.37,5.33.7.74,2.3-4.76,2.12-5.32ZM175.02,25.66s0-.26.33-.39c.33-.13.51.06.51.06,0,0,0,.26-.34.39-.33.13-.5-.06-.5-.06Z"/>
    </g>
  </g>
  <path class="cls-2" d="M162.4,30.15H33.62c-3.79,0-4.53-4.87-1.78-7.09,2.13-1.72,5.05.96,2.45,3.55-1.67,1.66-5.5,2.69-8.31-1.74-3.41-5.37-1.41-10.86,1.04-10.71s3.11,5.24.5,11.9c-2.14,5.47-4.26,6.81-4.26,6.81"/>
  <path class="cls-2" d="M23.26,32.86s-1.32,2.33-6.61,4.05c-6.8,2.21-11.75,1.95-11.9-.5s5.34-4.45,10.71-1.04c4.43,2.82,3.4,6.64,1.74,8.31-2.58,2.6-5.27-.32-3.55-2.45,2.23-2.75,7.09-2,7.09,1.78v120.3"/>
  <g>
    <path class="cls-2" d="M327.28,22.08c5.51,0,9.98,4.47,9.98,9.98h-9.98v-9.98Z"/>
    <g>
      <path class="cls-1" d="M335.56,30.42c-.1-1-.33-1.56-.77-2.46-.03-.06-.11-.09-.17-.05l-5.07,2.56c-.1.06-.06.22.06.22l5.83-.13c.07,0,.13-.06.12-.13Z"/>
      <path class="cls-1" d="M330.92,24.27c-.77-.32-1.04-.53-1.88-.62-.07,0-.13.05-.13.12l-.34,5.4c0,.12.17.17.23.06l2.19-4.79c.03-.06,0-.14-.06-.17Z"/>
      <path class="cls-1" d="M334.08,26.77c-.54-.69-1.18-1.3-1.9-1.8-.06-.04-.14-.02-.18.04l-2.44,4.47c-.06.11.06.23.17.16l4.32-2.69c.06-.04.08-.12.03-.18Z"/>
    </g>
    <path class="cls-3" d="M334.82,29.72s-.36.27-.78.26-.65-.4-.65-.4c0,0,.24-.27.72-.24.41.03.71.38.71.38Z"/>
  </g>
  <path class="cls-2" d="M187.6,30.15s125,0,128.78,0c3.79,0,4.53-4.87,1.78-7.09-2.13-1.72-5.05.96-2.45,3.55,1.67,1.66,5.5,2.69,8.31-1.74,3.41-5.37,1.41-10.86-1.04-10.71s-3.11,5.24-.5,11.9c2.14,5.47,4.26,6.81,4.26,6.81"/>
  <path class="cls-2" d="M326.74,32.86s1.32,2.33,6.61,4.05c6.8,2.21,11.75,1.95,11.9-.5s-5.34-4.45-10.71-1.04c-4.43,2.82-3.4,6.64-1.74,8.31,2.58,2.6,5.27-.32,3.55-2.45-2.23-2.75-7.09-2-7.09,1.78v120.3"/>
</svg>